<svg width="24" height="24" viewBox="0 0 24 24" fill="none" xmlns="http://www.w3.org/2000/svg">
<path d="M9.86444 22.0663C8.4611 22.0663 7.2826 21.5895 6.32894 20.6358C5.37527 19.6823 4.89844 18.5039 4.89844 17.1005C4.89844 16.2085 5.16394 15.357 5.69494 14.5458C6.22594 13.7346 6.95085 13.1235 7.86969 12.7125C8.06502 12.6132 8.26435 12.598 8.46769 12.667C8.67085 12.736 8.8221 12.8682 8.92144 13.0635C9.0206 13.2589 9.03569 13.4572 8.96669 13.6585C8.89769 13.8597 8.76552 14.01 8.57019 14.1093C7.95369 14.3711 7.46469 14.782 7.10319 15.3418C6.74169 15.9018 6.56094 16.4873 6.56094 17.0983C6.56094 18.0505 6.87419 18.8446 7.50069 19.4808C8.12702 20.1168 8.91494 20.4348 9.86444 20.4348C10.4738 20.4348 11.0579 20.2616 11.6169 19.9153C12.1761 19.5688 12.5807 19.0869 12.8307 18.4695C12.9299 18.2575 13.0853 18.1129 13.2969 18.0355C13.5086 17.9582 13.712 17.9705 13.9072 18.0723C14.1025 18.1743 14.2337 18.3256 14.3007 18.5263C14.3677 18.727 14.3516 18.9249 14.2524 19.12C13.8414 20.0222 13.2304 20.7388 12.4192 21.2698C11.608 21.8008 10.7564 22.0663 9.86444 22.0663ZM18.1859 22.0005C17.9494 22.0005 17.7534 21.9227 17.5977 21.767C17.4422 21.6115 17.3644 21.4155 17.3644 21.1788V16.7755H12.2234C11.6619 16.7755 11.1867 16.581 10.7977 16.192C10.4089 15.8032 10.2144 15.328 10.2144 14.7663V8.7648C10.2144 8.24813 10.3944 7.81096 10.7542 7.4533C11.1142 7.09563 11.5502 6.9168 12.0622 6.9168C12.4295 6.9168 12.7455 6.9868 13.0102 7.1268C13.2749 7.26696 13.5912 7.55005 13.9592 7.97605C14.5627 8.65221 15.2265 9.24763 15.9507 9.7623C16.675 10.277 17.4554 10.6133 18.2919 10.7713C18.5166 10.8086 18.7038 10.907 18.8534 11.0663C19.0031 11.2258 19.0779 11.4181 19.0779 11.6433C19.0779 11.8685 18.9958 12.0549 18.8314 12.2025C18.6671 12.35 18.4809 12.4071 18.2729 12.3738C17.5349 12.2571 16.7914 12.011 16.0422 11.6353C15.2929 11.2595 14.5711 10.7795 13.8769 10.1955V14.6988H17.0644C17.6029 14.6988 18.0605 14.887 18.4372 15.2635C18.8137 15.6402 19.0019 16.0978 19.0019 16.6363V21.1848C19.0019 21.4215 18.9251 21.6165 18.7714 21.77C18.6178 21.9237 18.4226 22.0005 18.1859 22.0005ZM12.0622 5.5668C11.5409 5.5668 11.0954 5.38163 10.7257 5.0113C10.3562 4.64113 10.1714 4.19496 10.1714 3.6728C10.1714 3.1548 10.3575 2.70971 10.7297 2.33755C11.1017 1.96538 11.5468 1.7793 12.0649 1.7793C12.5829 1.7793 13.0281 1.96538 13.4004 2.33755C13.7728 2.70971 13.9589 3.1548 13.9589 3.6728C13.9589 4.19496 13.7735 4.64113 13.4027 5.0113C13.032 5.38163 12.5852 5.5668 12.0622 5.5668Z" fill="#040709"/>
</svg>
