<svg width="24" height="24" viewBox="0 0 24 24" fill="none" xmlns="http://www.w3.org/2000/svg">
<path d="M10.0024 5.61367C9.48061 5.61367 9.03461 5.4285 8.66444 5.05817C8.29411 4.68784 8.10894 4.24276 8.10894 3.72292C8.10894 3.20292 8.29319 2.75676 8.66169 2.38442C9.03003 2.01226 9.47511 1.82617 9.99694 1.82617C10.5188 1.82617 10.9648 2.01159 11.3349 2.38242C11.7053 2.75326 11.8904 3.19909 11.8904 3.71992C11.8904 4.23909 11.7062 4.68451 11.3377 5.05617C10.9694 5.42784 10.5243 5.61367 10.0024 5.61367ZM16.5904 18.2674C17.3306 18.2674 17.9579 18.0118 18.4722 17.5007C18.9865 16.9897 19.2437 16.3641 19.2437 15.6239C19.2437 14.8838 18.9882 14.2565 18.4772 13.7422C17.966 13.2278 17.3404 12.9707 16.6002 12.9707C15.86 12.9707 15.2328 13.2262 14.7184 13.7372C14.2041 14.2483 13.9469 14.8739 13.9469 15.6139C13.9469 16.3541 14.2025 16.9814 14.7137 17.4959C15.2247 18.0103 15.8503 18.2674 16.5904 18.2674ZM19.0024 19.2254C18.6358 19.4656 18.2517 19.6498 17.8502 19.7782C17.4489 19.9065 17.0306 19.9707 16.5954 19.9707C15.3866 19.9707 14.3591 19.5475 13.5129 18.7012C12.6668 17.8548 12.2437 16.8272 12.2437 15.6182C12.2437 14.4092 12.6669 13.3818 13.5132 12.5359C14.3595 11.6903 15.3872 11.2674 16.5962 11.2674C17.8052 11.2674 18.8326 11.6905 19.6784 12.5367C20.5241 13.3828 20.9469 14.4103 20.9469 15.6189C20.9469 16.0581 20.8833 16.4774 20.7559 16.8769C20.6286 17.2764 20.4439 17.6595 20.2019 18.0262L22.2922 20.1222C22.462 20.2922 22.5469 20.4911 22.5469 20.7189C22.5469 20.9469 22.462 21.1458 22.2922 21.3157C22.1222 21.4857 21.9233 21.5707 21.6954 21.5707C21.4674 21.5707 21.2685 21.4857 21.0987 21.3157L19.0024 19.2254ZM11.1209 17.7402C11.2981 18.1967 11.523 18.6181 11.7957 19.0044C12.0684 19.3906 12.3893 19.7334 12.7584 20.0329V21.4767C12.7584 21.6413 12.7033 21.7776 12.5929 21.8854C12.4828 21.9933 12.3463 22.0472 12.1834 22.0472H11.9322C11.6999 22.0472 11.5065 21.969 11.3522 21.8127C11.198 21.6563 11.1209 21.4626 11.1209 21.2314V17.7402ZM8.87844 15.4994V21.2314C8.87844 21.4626 8.79961 21.6563 8.64194 21.8127C8.48411 21.969 8.28861 22.0472 8.05544 22.0472C7.82228 22.0472 7.62919 21.969 7.47619 21.8127C7.32336 21.6563 7.24694 21.4626 7.24694 21.2314V8.75117C6.32161 8.67251 5.40728 8.58009 4.50394 8.47392C3.60044 8.36792 2.69703 8.21667 1.79369 8.02017C1.56103 7.96617 1.38244 7.84367 1.25794 7.65267C1.13328 7.46167 1.09894 7.24992 1.15494 7.01742C1.21094 6.78475 1.34761 6.61342 1.56494 6.50342C1.78244 6.39359 2.01628 6.36559 2.26644 6.41942C3.54194 6.68225 4.82486 6.86784 6.11519 6.97617C7.40569 7.08451 8.70053 7.13867 9.99969 7.13867C11.3002 7.13867 12.5964 7.08451 13.8882 6.97617C15.1799 6.86784 16.4654 6.68225 17.7447 6.41942C17.994 6.36559 18.2319 6.39359 18.4582 6.50342C18.6844 6.61342 18.8244 6.78475 18.8784 7.01742C18.9324 7.24992 18.8841 7.46509 18.7334 7.66292C18.5826 7.86075 18.3837 7.98617 18.1367 8.03917C17.2445 8.21951 16.3512 8.36384 15.4567 8.47217C14.5624 8.5805 13.6629 8.67384 12.7584 8.75217V11.2054C12.1471 11.7428 11.6595 12.3902 11.2957 13.1477C10.9317 13.9053 10.7477 14.7192 10.7437 15.5892C10.7437 15.5732 10.7427 15.5582 10.7407 15.5442C10.7387 15.5303 10.7377 15.5154 10.7377 15.4994H8.87844Z" fill="#040709"/>
</svg>
