<svg width="24" height="24" viewBox="0 0 24 24" fill="none" xmlns="http://www.w3.org/2000/svg">
<path d="M12.4576 19.3811L11.4399 19.3751C9.04054 19.3273 7.00021 18.4448 5.31888 16.7276C3.63754 15.0104 2.79688 12.9502 2.79688 10.5469C2.79688 8.10769 3.66262 6.02753 5.39412 4.30636C7.12563 2.58519 9.21929 1.72461 11.6751 1.72461C12.8863 1.72461 14.009 1.94311 15.0434 2.38011C16.0775 2.81694 16.9786 3.42769 17.7466 4.21236C18.5145 4.99703 19.1169 5.92311 19.5539 6.99061C19.9909 8.05828 20.2094 9.22269 20.2094 10.4839C20.2094 12.731 19.6158 14.8155 18.4286 16.7374C17.2415 18.6594 15.7244 20.2399 13.8774 21.4789C13.7447 21.5702 13.6027 21.6149 13.4514 21.6129C13.3002 21.6109 13.1583 21.5789 13.0256 21.5171C12.8931 21.4591 12.7864 21.3679 12.7054 21.2436C12.6244 21.1193 12.5775 20.9805 12.5649 20.8274L12.4576 19.3811ZM14.1251 19.2339C15.4918 18.0839 16.5626 16.7287 17.3376 15.1684C18.1126 13.608 18.5001 12.0465 18.5001 10.4839C18.5001 8.41719 17.8543 6.72553 16.5626 5.40886C15.271 4.09219 13.6418 3.43386 11.6751 3.43386C9.67513 3.43386 7.97929 4.12869 6.58763 5.51836C5.19596 6.90803 4.50012 8.58819 4.50012 10.5589C4.50012 12.5255 5.19596 14.2047 6.58763 15.5964C7.97929 16.988 9.65846 17.6839 11.6251 17.6839H14.1251V19.2339ZM11.6811 16.4006C11.9638 16.4006 12.2027 16.303 12.3979 16.1079C12.5932 15.9125 12.6909 15.6735 12.6909 15.3909C12.6909 15.1122 12.5932 14.8753 12.3979 14.6801C12.2027 14.4848 11.9638 14.3871 11.6811 14.3871C11.3985 14.3871 11.1595 14.4848 10.9644 14.6801C10.769 14.8753 10.6714 15.1122 10.6714 15.3909C10.6714 15.6735 10.769 15.9125 10.9644 16.1079C11.1595 16.303 11.3985 16.4006 11.6811 16.4006ZM9.23213 8.10186C9.41079 8.17253 9.58629 8.17253 9.75863 8.10186C9.93079 8.03119 10.0832 7.91486 10.2159 7.75286C10.3579 7.54419 10.554 7.38036 10.8044 7.26136C11.0549 7.14236 11.3658 7.08286 11.7371 7.08286C12.1425 7.08286 12.4954 7.19453 12.7959 7.41786C13.0962 7.64119 13.2464 7.95119 13.2464 8.34786C13.2464 8.66069 13.1579 8.98061 12.9809 9.30761C12.8039 9.63444 12.5067 10.0066 12.0894 10.4241C11.7099 10.8074 11.4287 11.1489 11.2459 11.4486C11.0629 11.7481 10.9714 12.0106 10.9714 12.2361C10.9714 12.4313 11.0305 12.6005 11.1489 12.7439C11.267 12.8872 11.4238 12.9589 11.6191 12.9589C11.8105 12.9589 11.9726 12.8995 12.1056 12.7809C12.2386 12.6622 12.3277 12.5112 12.3729 12.3279C12.4349 12.1485 12.5307 11.9525 12.6604 11.7399C12.7902 11.5272 12.9908 11.2832 13.2621 11.0079C13.7693 10.4925 14.1239 10.0297 14.3259 9.61936C14.5279 9.20903 14.6289 8.78128 14.6289 8.33611C14.6289 7.54078 14.3529 6.90578 13.8009 6.43111C13.2489 5.95644 12.5709 5.71911 11.7669 5.71911C11.2717 5.71911 10.7546 5.83161 10.2156 6.05661C9.67663 6.28161 9.28412 6.62344 9.03813 7.08211C8.92229 7.28544 8.88004 7.48853 8.91138 7.69136C8.94271 7.89436 9.04963 8.03119 9.23213 8.10186Z" fill="#040709"/>
</svg>
