<svg width="24" height="24" viewBox="0 0 24 24" fill="none" xmlns="http://www.w3.org/2000/svg">
<path d="M9.69072 11.8094H13.986V12.9866C13.986 13.1854 14.0761 13.3201 14.2562 13.3906C14.4366 13.4611 14.593 13.43 14.7255 13.2974L16.4267 11.5964C16.5966 11.4204 16.6805 11.2148 16.6785 10.9796C16.6765 10.7444 16.5926 10.5419 16.4267 10.3719L14.7255 8.67086C14.593 8.53819 14.4366 8.50786 14.2562 8.57986C14.0761 8.65186 13.986 8.78578 13.986 8.98161V10.1899H8.88697C8.65964 10.1899 8.4678 10.2679 8.31147 10.4241C8.1553 10.5804 8.07722 10.7723 8.07722 10.9996V14.2376C8.07722 14.4649 8.15572 14.6568 8.31272 14.8131C8.46989 14.9693 8.6628 15.0474 8.89147 15.0474C9.1183 15.0474 9.30822 14.9693 9.46122 14.8131C9.61422 14.6568 9.69072 14.4649 9.69072 14.2376V11.8094ZM12.0002 22.2061C11.7759 22.2061 11.5549 22.1678 11.3372 22.0911C11.1197 22.0146 10.9343 21.9017 10.781 21.7524L2.24672 13.2181C2.09739 13.0648 1.98447 12.8791 1.90797 12.6611C1.8313 12.4433 1.79297 12.2216 1.79297 11.9961C1.79297 11.7706 1.8313 11.55 1.90797 11.3344C1.98447 11.1189 2.09739 10.9344 2.24672 10.7811L10.781 2.24686C10.9351 2.09369 11.1211 1.97878 11.339 1.90211C11.5566 1.82544 11.7781 1.78711 12.0035 1.78711C12.2286 1.78711 12.4491 1.82544 12.6647 1.90211C12.8804 1.97878 13.0648 2.09369 13.218 2.24686L21.7522 10.7811C21.9054 10.9346 22.0203 11.1199 22.097 11.3369C22.1736 11.5539 22.212 11.7745 22.212 11.9989C22.212 12.2232 22.1736 12.4439 22.097 12.6611C22.0203 12.8781 21.9054 13.0638 21.7522 13.2181L13.218 21.7524C13.0646 21.9017 12.8795 22.0146 12.6625 22.0911C12.4455 22.1678 12.2247 22.2061 12.0002 22.2061ZM7.74122 16.2579L11.9995 20.5219L20.5217 11.9996L11.9995 3.47736L3.47722 11.9996L7.74122 16.2579Z" fill="#040709"/>
</svg>
