<svg width="24" height="24" viewBox="0 0 24 24" fill="none" xmlns="http://www.w3.org/2000/svg">
<path d="M8.34486 16.1885L13.4606 14.646C13.7431 14.559 13.9854 14.4145 14.1874 14.2125C14.3894 14.0105 14.5339 13.7682 14.6209 13.4857L16.1634 8.37C16.2172 8.21 16.183 8.06733 16.0609 7.942C15.9385 7.81683 15.7944 7.78117 15.6284 7.835L10.5126 9.3775C10.2301 9.4645 9.98786 9.609 9.78586 9.811C9.58386 10.013 9.43936 10.2552 9.35236 10.5377L7.80986 15.6535C7.75603 15.8135 7.79019 15.9562 7.91236 16.0815C8.03469 16.2067 8.17886 16.2423 8.34486 16.1885ZM11.9919 12.9095C11.7412 12.9095 11.528 12.8192 11.3524 12.6387C11.1767 12.4581 11.0889 12.2425 11.0889 11.992C11.0889 11.7413 11.1791 11.5282 11.3596 11.3525C11.5403 11.1768 11.7559 11.089 12.0064 11.089C12.257 11.089 12.4702 11.1792 12.6459 11.3597C12.8215 11.5404 12.9094 11.756 12.9094 12.0065C12.9094 12.2572 12.8191 12.4703 12.6386 12.646C12.4579 12.8217 12.2424 12.9095 11.9919 12.9095ZM12.0066 22.1487C10.6033 22.1487 9.28628 21.8831 8.05561 21.3517C6.82494 20.8204 5.74861 20.0938 4.82661 19.1718C3.90461 18.2498 3.17794 17.1731 2.64661 15.9417C2.11528 14.7104 1.84961 13.3923 1.84961 11.9875C1.84961 10.5828 2.11528 9.2645 2.64661 8.0325C3.17794 6.80067 3.90428 5.72783 4.82561 4.814C5.74694 3.9 6.82344 3.1765 8.05511 2.6435C9.28678 2.11033 10.6052 1.84375 12.0104 1.84375C13.4154 1.84375 14.7341 2.11017 15.9666 2.643C17.1989 3.17583 18.2719 3.89892 19.1854 4.81225C20.099 5.72558 20.8223 6.79958 21.3551 8.03425C21.8881 9.26892 22.1546 10.5883 22.1546 11.9925C22.1546 13.3965 21.888 14.7137 21.3549 15.9442C20.8219 17.1749 20.0984 18.2495 19.1844 19.168C18.2705 20.0863 17.1966 20.8127 15.9626 21.3472C14.7286 21.8816 13.4099 22.1487 12.0066 22.1487ZM12.0101 20.4455C14.3614 20.4455 16.3551 19.6237 17.9911 17.9802C19.6273 16.3367 20.4454 14.3394 20.4454 11.9882C20.4454 9.63692 19.6277 7.64325 17.9924 6.00725C16.357 4.37108 14.3637 3.553 12.0124 3.553C9.66103 3.553 7.66328 4.37067 6.01911 6.006C4.37494 7.64133 3.55286 9.63467 3.55286 11.986C3.55286 14.3373 4.37461 16.3351 6.01811 17.9792C7.66161 19.6234 9.65894 20.4455 12.0101 20.4455Z" fill="#040709"/>
</svg>
