<svg width="24" height="24" viewBox="0 0 24 24" fill="none" xmlns="http://www.w3.org/2000/svg">
<path d="M3.55286 19.1487C3.08036 19.1487 2.67836 18.983 2.34686 18.6515C2.01536 18.32 1.84961 17.918 1.84961 17.4455V10.516C1.84961 10.2838 1.89528 10.061 1.98661 9.8475C2.07794 9.63417 2.20019 9.45083 2.35336 9.2975L5.31986 6.33175C5.45419 6.19308 5.61603 6.08208 5.80536 5.99875C5.99453 5.91542 6.19353 5.87375 6.40236 5.87375H7.24736V4.6775C7.24736 4.44383 7.32778 4.2465 7.48861 4.0855C7.64944 3.92433 7.84644 3.84375 8.07961 3.84375C8.31728 3.84375 8.51486 3.92433 8.67236 4.0855C8.83003 4.2465 8.90886 4.44383 8.90886 4.6775V5.87375H17.5181C17.7539 5.87375 17.9788 5.92058 18.1926 6.01425C18.4063 6.10808 18.5896 6.23117 18.7426 6.3835L21.6509 9.2975C21.8012 9.45017 21.9228 9.63317 22.0156 9.8465C22.1083 10.0598 22.1546 10.283 22.1546 10.516V17.4455C22.1546 17.918 21.9878 18.32 21.6541 18.6515C21.3204 18.983 20.9195 19.1487 20.4514 19.1487H3.55286ZM16.0769 17.4873H20.4931V10.4983L18.2849 8.284L16.0769 10.4983V17.4873ZM14.4154 17.4873V11.559H3.51111V17.4873H14.4154Z" fill="#040709"/>
</svg>
