<svg width="24" height="24" viewBox="0 0 24 24" fill="none" xmlns="http://www.w3.org/2000/svg">
<path d="M11.999 2.34375C14.0234 2.34375 15.802 3.04835 17.3545 4.47656C18.878 5.87816 19.6543 7.76162 19.6543 10.1816C19.6542 11.1669 19.4373 12.1516 18.9951 13.1396C18.5416 14.153 17.9725 15.1236 17.2871 16.0518C16.5957 16.988 15.845 17.8617 15.0342 18.6729C14.2111 19.4964 13.4438 20.2249 12.7324 20.8584L12.7266 20.8633L12.7217 20.8682C12.6311 20.9539 12.5266 21.016 12.4043 21.0557C12.2578 21.1031 12.1206 21.125 11.9912 21.125C11.8619 21.125 11.7283 21.103 11.5889 21.0566C11.4732 21.0181 11.375 20.9581 11.2891 20.874L11.2803 20.8652L11.2705 20.8574C10.5556 20.2243 9.78656 19.496 8.96387 18.6729C8.15312 17.8618 7.4023 16.9879 6.71094 16.0518C6.02568 15.1238 5.45726 14.1537 5.00586 13.1406C4.56549 12.1525 4.34967 11.1672 4.34961 10.1816C4.34961 7.76133 5.12573 5.87812 6.64746 4.47656C8.19779 3.04856 9.97475 2.34377 11.999 2.34375ZM11.999 3.05273C10.0638 3.05273 8.40896 3.72163 7.06738 5.05566C5.7178 6.39789 5.05273 8.12135 5.05273 10.1816C5.05284 11.6012 5.64665 13.1403 6.75098 14.7852C7.85583 16.4307 9.49651 18.2597 11.6582 20.2705L11.9951 20.584L12.335 20.2754C14.5478 18.2679 16.2053 16.4372 17.2881 14.7842C18.3669 13.1371 18.9452 11.5979 18.9453 10.1816C18.9453 8.12131 18.2803 6.39791 16.9307 5.05566V5.05469C15.5888 3.72079 13.9342 3.05277 11.999 3.05273ZM11.9971 8.70117C12.3633 8.70122 12.661 8.82425 12.918 9.08008C13.1741 9.3352 13.2969 9.6315 13.2969 9.99707C13.2969 10.3633 13.1739 10.6595 12.9189 10.9141C12.6641 11.1685 12.3674 11.291 12.001 11.291C11.634 11.2909 11.3382 11.1681 11.084 10.915C10.8305 10.6624 10.7071 10.3682 10.707 10.002C10.707 9.68048 10.8013 9.41181 10.9951 9.17773L11.084 9.08008C11.3369 8.8247 11.6315 8.70117 11.9971 8.70117Z" fill="#040709" stroke="#040709"/>
</svg>
