<svg width="24" height="24" viewBox="0 0 24 24" fill="none" xmlns="http://www.w3.org/2000/svg">
<path d="M3.96075 19.0363C2.86558 19.0363 1.93167 18.6533 1.159 17.8871C0.386333 17.1208 0 16.1836 0 15.0756C0 13.9796 0.374167 13.0524 1.1225 12.2941C1.87083 11.5358 2.78275 11.1506 3.85825 11.1386L2.749 10.2863H0.69075C0.491417 10.2863 0.3265 10.2201 0.196 10.0876C0.0653333 9.95493 0 9.78901 0 9.58984C0 9.39051 0.0663333 9.22551 0.199 9.09484C0.3315 8.96418 0.497417 8.89884 0.69675 8.89884H4.56675L7.04175 10.4588L10.719 9.07659C10.8143 9.03926 10.9128 9.01126 11.0145 8.99259C11.116 8.97409 11.2164 8.96484 11.3158 8.96484H14.3733L12.4773 6.53634H11.0857C10.8612 6.53634 10.6742 6.46259 10.5245 6.31509C10.3748 6.16743 10.3 5.97926 10.3 5.75059C10.3 5.52193 10.3738 5.33376 10.5215 5.18609C10.6692 5.03859 10.8573 4.96484 11.0857 4.96484H12.4365C12.7057 4.96484 12.9583 5.02076 13.1945 5.13259C13.4308 5.24459 13.6256 5.40618 13.7788 5.61734L15.413 7.73384L18.0223 6.43859C18.1716 6.36393 18.3135 6.36809 18.448 6.45109C18.5827 6.53409 18.65 6.65226 18.65 6.80559V8.38859C18.65 8.50059 18.6075 8.59909 18.5225 8.68409C18.4375 8.76893 18.3391 8.81134 18.2273 8.81134H16.2358L18.301 11.4838C18.5803 11.375 18.8607 11.2904 19.142 11.2301C19.4235 11.1699 19.7143 11.1398 20.0142 11.1398C21.1221 11.1398 22.0633 11.5229 22.838 12.2891C23.6127 13.0554 24 13.9926 24 15.1006C24 16.2086 23.6127 17.1416 22.838 17.8996C22.0633 18.6574 21.1221 19.0363 20.0142 19.0363C18.9189 19.0363 17.9901 18.6543 17.2278 17.8901C16.4654 17.1258 16.0842 16.1959 16.0842 15.1006C16.0842 14.6006 16.1666 14.1246 16.3313 13.6726C16.4959 13.2206 16.7429 12.8133 17.0723 12.4506L16.2393 11.3793L12.868 16.5386C12.7767 16.6546 12.672 16.7499 12.554 16.8246C12.4362 16.8991 12.3026 16.9363 12.1533 16.9363H10.2408C10.1414 16.9363 10.04 16.9178 9.9365 16.8806C9.83283 16.8433 9.73533 16.7853 9.644 16.7066L7.91575 15.1413C7.89975 16.2373 7.51058 17.1605 6.74825 17.9108C5.98608 18.6612 5.05692 19.0363 3.96075 19.0363ZM3.96075 17.4648C4.63225 17.4648 5.19833 17.2313 5.659 16.7641C6.11967 16.2971 6.35 15.7343 6.35 15.0756C6.35 14.4169 6.11967 13.8541 5.659 13.3871C5.19833 12.9199 4.63225 12.6863 3.96075 12.6863C3.30208 12.6863 2.73825 12.9168 2.26925 13.3776C1.80025 13.8383 1.56575 14.4043 1.56575 15.0756C1.56575 15.7469 1.80025 16.3129 2.26925 16.7736C2.73825 17.2344 3.30208 17.4648 3.96075 17.4648ZM20.0142 17.4648C20.6856 17.4648 21.2568 17.2354 21.7278 16.7766C22.1987 16.3179 22.4342 15.7593 22.4342 15.1006C22.4342 14.4293 22.1987 13.8591 21.7278 13.3901C21.2568 12.9209 20.6856 12.6863 20.0142 12.6863C19.3554 12.6863 18.7967 12.9209 18.338 13.3901C17.8793 13.8591 17.65 14.4293 17.65 15.1006C17.65 15.7593 17.8793 16.3179 18.338 16.7766C18.7967 17.2354 19.3554 17.4648 20.0142 17.4648ZM11.7713 15.3648L14.9292 10.5363H11.3168L7.05175 12.1376L10.4728 15.3648H11.7713Z" fill="#040709"/>
</svg>
